<svg xmlns="http://www.w3.org/2000/svg" viewBox="0 0 180 180">
  <!-- Background gradient -->
  <defs>
    <linearGradient id="bgGradientApple" x1="0%" y1="0%" x2="100%" y2="100%">
      <stop offset="0%" style="stop-color:#667eea;stop-opacity:1" />
      <stop offset="100%" style="stop-color:#764ba2;stop-opacity:1" />
    </linearGradient>
    
    <!-- Glass effect gradient -->
    <linearGradient id="glassGradientApple" x1="0%" y1="0%" x2="0%" y2="100%">
      <stop offset="0%" style="stop-color:#ffffff;stop-opacity:0.3" />
      <stop offset="100%" style="stop-color:#ffffff;stop-opacity:0.05" />
    </linearGradient>
    
    <!-- Card shadow -->
    <filter id="cardShadowApple">
      <feDropShadow dx="0" dy="6" stdDeviation="8" flood-opacity="0.15"/>
    </filter>
  </defs>
  
  <!-- Background with rounded corners -->
  <rect width="180" height="180" rx="40" fill="url(#bgGradientApple)"/>
  
  <!-- Glass card stack effect -->
  <!-- Back card -->
  <rect x="70" y="40" width="60" height="80" rx="8" 
        fill="rgba(255,255,255,0.1)" 
        transform="rotate(15 100 80)"/>
  
  <!-- Middle card -->
  <rect x="55" y="45" width="60" height="80" rx="8" 
        fill="rgba(255,255,255,0.15)" 
        transform="rotate(7 85 85)"/>
  
  <!-- Front card with glass effect -->
  <rect x="45" y="50" width="90" height="110" rx="12" 
        fill="url(#glassGradientApple)" 
        stroke="rgba(255,255,255,0.5)" 
        stroke-width="2"
        filter="url(#cardShadowApple)"/>
  
  <!-- Card content - Agile symbols -->
  <!-- Infinity symbol for continuous improvement -->
  <path d="M 50 90 C 50 65, 65 50, 90 50 C 115 50, 130 65, 130 90 C 130 115, 115 130, 90 130 C 65 130, 50 115, 50 90 M 90 90 C 90 115, 105 130, 130 130 C 155 130, 170 115, 170 90 C 170 65, 155 50, 130 50 C 105 50, 90 65, 90 90" 
        fill="none" 
        stroke="white" 
        stroke-width="12" 
        stroke-linecap="round" 
        opacity="0.9"/>
  
  <!-- Small sync arrows below to represent collaboration -->
  <path d="M 65 125 A 15 15 0 0 1 80 110 M 95 130 A 15 15 0 0 1 110 115" 
        fill="none" 
        stroke="white" 
        stroke-width="8" 
        stroke-linecap="round" 
        opacity="0.7"/>
  <path d="M 80 110 L 70 110 L 70 120 M 110 115 L 100 115 L 100 125" 
        fill="none" 
        stroke="white" 
        stroke-width="8" 
        stroke-linecap="round" 
        opacity="0.7"/>
  
  <!-- Corner decorations -->
  <circle cx="65" cy="70" r="4" fill="rgba(255,255,255,0.4)"/>
  <circle cx="115" cy="70" r="4" fill="rgba(255,255,255,0.4)"/>
  <circle cx="65" cy="140" r="4" fill="rgba(255,255,255,0.4)"/>
  <circle cx="115" cy="140" r="4" fill="rgba(255,255,255,0.4)"/>
</svg>