<svg xmlns="http://www.w3.org/2000/svg" viewBox="0 0 32 32">
  <!-- Background gradient -->
  <defs>
    <linearGradient id="bgGradient" x1="0%" y1="0%" x2="100%" y2="100%">
      <stop offset="0%" style="stop-color:#667eea;stop-opacity:1" />
      <stop offset="100%" style="stop-color:#764ba2;stop-opacity:1" />
    </linearGradient>
    
    <!-- Glass effect gradient -->
    <linearGradient id="glassGradient" x1="0%" y1="0%" x2="0%" y2="100%">
      <stop offset="0%" style="stop-color:#ffffff;stop-opacity:0.3" />
      <stop offset="100%" style="stop-color:#ffffff;stop-opacity:0.05" />
    </linearGradient>
    
    <!-- Card shadow -->
    <filter id="cardShadow">
      <feDropShadow dx="0" dy="2" stdDeviation="2" flood-opacity="0.2"/>
    </filter>
  </defs>
  
  <!-- Background circle with gradient -->
  <circle cx="16" cy="16" r="15" fill="url(#bgGradient)"/>
  
  <!-- Glass card stack effect -->
  <!-- Back card -->
  <rect x="11" y="7" width="12" height="16" rx="2" 
        fill="rgba(255,255,255,0.1)" 
        transform="rotate(15 17 15)"/>
  
  <!-- Middle card -->
  <rect x="9" y="8" width="12" height="16" rx="2" 
        fill="rgba(255,255,255,0.15)" 
        transform="rotate(7 15 16)"/>
  
  <!-- Front card with glass effect -->
  <rect x="8" y="9" width="16" height="20" rx="2.5" 
        fill="url(#glassGradient)" 
        stroke="rgba(255,255,255,0.5)" 
        stroke-width="0.5"
        filter="url(#cardShadow)"/>
  
  <!-- Card content - Agile symbols -->
  <!-- Infinity symbol for continuous improvement -->
  <path d="M 10 16 C 10 12, 12 10, 16 10 C 20 10, 22 12, 22 16 C 22 20, 20 22, 16 22 C 12 22, 10 20, 10 16 M 16 16 C 16 20, 18 22, 22 22 C 26 22, 28 20, 28 16 C 28 12, 26 10, 22 10 C 18 10, 16 12, 16 16" 
        fill="none" 
        stroke="white" 
        stroke-width="2.5" 
        stroke-linecap="round" 
        opacity="0.9"/>
  
  <!-- Small sync arrows below to represent collaboration -->
  <path d="M 12 23 A 3 3 0 0 1 15 20 M 17 24 A 3 3 0 0 1 20 21" 
        fill="none" 
        stroke="white" 
        stroke-width="1.5" 
        stroke-linecap="round" 
        opacity="0.7"/>
  <path d="M 15 20 L 13 20 L 13 22 M 20 21 L 18 21 L 18 23" 
        fill="none" 
        stroke="white" 
        stroke-width="1.5" 
        stroke-linecap="round" 
        opacity="0.7"/>
  
  <!-- Small decorative elements -->
  <circle cx="12" cy="13" r="0.8" fill="rgba(255,255,255,0.4)"/>
  <circle cx="20" cy="13" r="0.8" fill="rgba(255,255,255,0.4)"/>
  <circle cx="12" cy="25" r="0.8" fill="rgba(255,255,255,0.4)"/>
  <circle cx="20" cy="25" r="0.8" fill="rgba(255,255,255,0.4)"/>
</svg>